<?xml version="1.0" standalone="no"?>
<svg xmlns:xlink="http://www.w3.org/1999/xlink" id="wave" style="transform:rotate(0deg); transition: 0.3s" viewBox="0 0 1440 450" version="1.1"
    xmlns="http://www.w3.org/2000/svg">
    <defs>
        <linearGradient id="sw-gradient-0" x1="0" x2="0" y1="1" y2="0">
            <stop stop-color="rgba(62, 193.95, 243, 1)" offset="0%"/>
            <stop stop-color="rgba(117.422, 255, 208.396, 1)" offset="100%"/>
        </linearGradient>
    </defs>
    <path style="transform:translate(0, 0px); opacity:1" fill="url(#sw-gradient-0)" d="M0,270L21.8,292.5C43.6,315,87,360,131,322.5C174.5,285,218,165,262,97.5C305.5,30,349,15,393,15C436.4,15,480,30,524,52.5C567.3,75,611,105,655,142.5C698.2,180,742,225,785,202.5C829.1,180,873,90,916,60C960,30,1004,60,1047,82.5C1090.9,105,1135,120,1178,120C1221.8,120,1265,105,1309,90C1352.7,75,1396,60,1440,67.5C1483.6,75,1527,105,1571,150C1614.5,195,1658,255,1702,270C1745.5,285,1789,255,1833,262.5C1876.4,270,1920,315,1964,315C2007.3,315,2051,270,2095,232.5C2138.2,195,2182,165,2225,150C2269.1,135,2313,135,2356,165C2400,195,2444,255,2487,292.5C2530.9,330,2575,345,2618,322.5C2661.8,300,2705,240,2749,210C2792.7,180,2836,180,2880,202.5C2923.6,225,2967,270,3011,255C3054.5,240,3098,165,3120,127.5L3141.8,90L3141.8,450L3120,450C3098.2,450,3055,450,3011,450C2967.3,450,2924,450,2880,450C2836.4,450,2793,450,2749,450C2705.5,450,2662,450,2618,450C2574.5,450,2531,450,2487,450C2443.6,450,2400,450,2356,450C2312.7,450,2269,450,2225,450C2181.8,450,2138,450,2095,450C2050.9,450,2007,450,1964,450C1920,450,1876,450,1833,450C1789.1,450,1745,450,1702,450C1658.2,450,1615,450,1571,450C1527.3,450,1484,450,1440,450C1396.4,450,1353,450,1309,450C1265.5,450,1222,450,1178,450C1134.5,450,1091,450,1047,450C1003.6,450,960,450,916,450C872.7,450,829,450,785,450C741.8,450,698,450,655,450C610.9,450,567,450,524,450C480,450,436,450,393,450C349.1,450,305,450,262,450C218.2,450,175,450,131,450C87.3,450,44,450,22,450L0,450Z"/>
</svg>